<svg width="390" height="200" viewBox="0 0 390 200" fill="none" xmlns="http://www.w3.org/2000/svg">
<path fill-rule="evenodd" clip-rule="evenodd" d="M0 154.25L16.25 151.708C32.5 149.167 65 144.083 97.5 131.375C130 118.667 162.5 98.3333 195 100.875C227.5 103.417 260 128.833 292.5 128.833C325 128.833 357.5 103.417 373.75 90.7083L390 78V200H373.75C357.5 200 325 200 292.5 200C260 200 227.5 200 195 200C162.5 200 130 200 97.5 200C65 200 32.5 200 16.25 200H0V154.25Z" fill="#23B36E"/>
<path fill-rule="evenodd" clip-rule="evenodd" d="M390 108.125L373.75 104.521C357.5 100.917 325 93.7083 292.5 75.6875C260 57.6667 227.5 28.8333 195 32.4375C162.5 36.0417 130 72.0833 97.5 72.0833C65 72.0833 32.5 36.0417 16.25 18.0208L0 0V173H16.25C32.5 173 65 173 97.5 173C130 173 162.5 173 195 173C227.5 173 260 173 292.5 173C325 173 357.5 173 373.75 173H390V108.125Z" fill="#23B36E" fill-opacity="0.5"/>
</svg>
